# xmcd CD database file
# Copyright (C) 1993-1996 Ti Kan
#
# Track frame offsets:
#	150
#	12685
#	27317
#	49442
#	66507
#	80980
#
# Disc length: 1307 seconds
#
# Revision: 1
# Processed by: cddbd v1.4b41PL1 Copyright (c) Steve Scherf et al.
# Submitted via: EasyCD2 v3.00 - Copyright (c) 1997 Greg Leichner
#
DISCID=5a051906
DTITLE=Various, Country, Female - Karaft Country Tour '96 (Promotional)
DYEAR=1900
DGENRE=
TTITLE0=When You Walk in the Room, Pam Tillis
TTITLE1=Every Little Thing, Carlene Carter
TTITLE2=Homeward Looking Angel, Pam Tillis
TTITLE3=My Night to Howl, Lorrie Morgan
TTITLE4=Hurricane, Carlene Carter
TTITLE5=Half Enough, Lorrie Morgan
EXTD=
EXTT0=
EXTT1=
EXTT2=
EXTT3=
EXTT4=
EXTT5=
PLAYORDER=
